# xmcd CD database file
#
# Track frame offsets:
#	182
#	15667
#	35922
#	55200
#	78132
#	95770
#	120185
#	143827
#	165555
#	178925
#	200542
#	222140
#	243820
#	266872
#
# Disc length: 3839 seconds
#
# Revision: 4
# Processed by: cddbd v1.4PL0 Copyright (c) Steve Scherf et al.
# Submitted via: jetAudio 5
#
DISCID=c00efd0e
DTITLE=Eric Clapton - Reptile
DYEAR=1900
DGENRE=
TTITLE0=Reptile
TTITLE1=Got You On My Mind
TTITLE2=Travelin' Light
TTITLE3=Believe In Life
TTITLE4=Come Back Baby
TTITLE5=Broken Down
TTITLE6=Find Myself
TTITLE7=I Ain't Gonna Stand For It
TTITLE8=I Want A Little Girl
TTITLE9=Second Nature
TTITLE10=Don't Let Me Be Lonely Tonight
TTITLE11=Modern Girl
TTITLE12=Superman Inside
TTITLE13=Son and Sylvia
EXTD=
EXTT0=
EXTT1=
EXTT2=
EXTT3=
EXTT4=
EXTT5=
EXTT6=
EXTT7=
EXTT8=
EXTT9=
EXTT10=
EXTT11=
EXTT12=
EXTT13=
PLAYORDER=
